<?xml version="1.0" encoding="utf-8"?>

<!DOCTYPE svg PUBLIC "-//W3C//DTD SVG 1.1//EN" "http://www.w3.org/Graphics/SVG/1.1/DTD/svg11.dtd">
<!-- Uploaded to: SVG Repo, www.svgrepo.com, Generator: SVG Repo Mixer Tools -->
<svg height="800px" width="800px" version="1.1" id="_x32_" xmlns="http://www.w3.org/2000/svg" xmlns:xlink="http://www.w3.org/1999/xlink" 
	 viewBox="0 0 512 512"  xml:space="preserve">
<style type="text/css">
	.st0{fill:#000000;}
</style>
<g>
	<path class="st0" d="M445.704,156.367V78.544c0-22.904-18.585-41.489-41.489-41.489h-296.43c-22.907,0-41.492,18.585-41.492,41.489
		v77.822L0,327.337v62.43c0,24.119,19.493,43.615,43.615,43.615H73.5l4.778,41.563h57.877l4.852-41.563h229.985l4.852,41.563h57.801
		l4.851-41.563h29.889c24.045,0,43.615-19.496,43.615-43.615v-62.43L445.704,156.367z M89.048,78.544
		c0-10.311,8.345-18.66,18.737-18.733h296.43c10.318,0.074,18.733,8.422,18.733,18.733v76.155h-36.785
		c0.074-0.229,0.074-0.451,0.074-0.681v-29.963c0-12.896-10.467-23.363-23.363-23.363h-74.789
		c-12.896,0-23.363,10.467-23.363,23.363v29.963c0,0.23,0,0.452,0.078,0.681h-17.6c0.078-0.229,0.078-0.451,0.078-0.681v-29.963
		c0-12.896-10.47-23.363-23.362-23.363h-74.789c-12.896,0-23.363,10.467-23.363,23.363v29.963c0,0.23,0,0.452,0.074,0.681H89.048
		V78.544z M88.293,162.589l-0.759-0.304h39.744h118.481h20.482h118.478h38.91l62.734,161.793H25.637L88.293,162.589z
		 M489.244,389.767c0,11.526-9.333,20.859-20.859,20.859h-27.229h-72.822h-224.67H70.845h-27.23
		c-11.53,0-20.859-9.334-20.859-20.859v-58.104h466.489V389.767z"/>
</g>
</svg>